<?xml version="1.0" encoding="utf-8"?>
<!-- Generator: Adobe Illustrator 22.1.0, SVG Export Plug-In . SVG Version: 6.00 Build 0)  -->
<svg version="1.1" id="Слой_1" xmlns="http://www.w3.org/2000/svg" xmlns:xlink="http://www.w3.org/1999/xlink" x="0px" y="0px"
	 viewBox="0 0 95.1 33" style="enable-background:new 0 0 95.1 33;" xml:space="preserve">
<style type="text/css">
	.st0{enable-background:new    ;}
	.st1{fill:#2B2A2F;}
</style>
<g class="st0">
	<path class="st1" d="M2.6,23.8c1,1.6,2.5,2.4,4.5,2.4c0.8,0,1.5-0.1,2.1-0.4c0.6-0.3,1.1-0.7,1.5-1.3c0.4-0.6,0.6-1.3,0.6-2.1
		c0-0.9-0.2-1.7-0.6-2.4c-0.4-0.7-1-1.3-1.7-1.9c-0.7-0.6-1.6-1.3-2.8-2c-1.4-0.9-2.5-1.7-3.3-2.3c-0.8-0.7-1.5-1.4-2-2.3
		c-0.5-0.9-0.8-1.9-0.8-3.1c0-1.4,0.3-2.5,1-3.5C1.9,3.9,2.8,3.2,4,2.8c1.2-0.5,2.4-0.7,3.8-0.7c0.8,0,1.5,0.1,2.1,0.2
		c0.6,0.1,1.1,0.3,1.5,0.5c0.4,0.2,0.8,0.4,1.3,0.7c0.5,0.3,0.9,0.5,1.1,0.5c0.2,0,0.4-0.1,0.5-0.4c0.1-0.2,0.2-0.6,0.3-1.1h0.8
		c-0.1,1.5-0.2,4.1-0.2,7.8h-0.8c-0.1-1.2-0.4-2.4-0.8-3.5c-0.5-1.1-1.1-2-2-2.7c-0.8-0.7-1.8-1-3-1C8,2.9,7.3,3,6.8,3.3
		C6.2,3.6,5.8,4,5.4,4.5C5.1,5,5,5.7,5,6.4c0,1.1,0.3,2.1,1,2.8c0.7,0.7,1.6,1.4,2.6,2.2c1.1,0.7,1.8,1.2,2.2,1.5
		c1.3,0.9,2.4,1.7,3.2,2.3c0.8,0.7,1.4,1.4,1.9,2.3c0.5,0.9,0.7,1.9,0.7,3c0,1.5-0.4,2.7-1.1,3.7c-0.8,1-1.8,1.7-3,2.2
		c-1.3,0.5-2.7,0.7-4.3,0.7c-1.3,0-2.3-0.1-3.2-0.3c-0.8-0.2-1.6-0.5-2.3-0.9c-0.5-0.3-0.9-0.5-1.1-0.5c-0.2,0-0.4,0.1-0.5,0.4
		c-0.1,0.2-0.2,0.6-0.3,1.1H0c0.1-1.4,0.1-4.5,0.1-9.2h0.8C1.1,20.2,1.6,22.2,2.6,23.8z"/>
	<path class="st1" d="M31.1,8.5c1.8,0,3,0.4,3.7,1.3c0.4,0.4,0.7,1,0.8,1.7c0.2,0.7,0.3,1.6,0.3,2.7v9.1c0,0.6,0.1,1.1,0.2,1.5
		c0.1,0.4,0.4,0.6,0.7,0.7c0.3,0.1,0.7,0.2,1.3,0.2v0.7c-2.4-0.1-3.9-0.1-4.5-0.1c-0.8,0-2.2,0-4.4,0.1v-0.7c0.5,0,0.8-0.1,1.1-0.2
		s0.5-0.4,0.6-0.7c0.1-0.4,0.2-0.8,0.2-1.5V12.9c0-0.9-0.2-1.6-0.5-2.1c-0.3-0.5-0.9-0.7-1.7-0.7c-0.6,0-1.2,0.2-1.7,0.5
		c-0.5,0.3-0.9,0.8-1.2,1.4c-0.3,0.6-0.4,1.3-0.4,2v9.5c0,0.6,0.1,1.1,0.2,1.5s0.3,0.6,0.6,0.7c0.3,0.1,0.6,0.2,1.1,0.2v0.7
		c-2.2-0.1-3.6-0.1-4.2-0.1c-0.8,0-2.4,0-4.7,0.1v-0.7c0.5,0,1-0.1,1.3-0.2c0.3-0.1,0.5-0.4,0.7-0.7c0.1-0.4,0.2-0.8,0.2-1.5V4.1
		c0-1.1-0.2-1.8-0.5-2.3c-0.3-0.5-0.9-0.7-1.7-0.7V0.4c0.7,0.1,1.4,0.1,2.1,0.1c2,0,3.6-0.2,5-0.5v11.7C26.6,9.6,28.4,8.5,31.1,8.5z
		"/>
	<path class="st1" d="M54.2,10.8c1.5,1.5,2.2,3.8,2.2,7.1c0,3.2-0.7,5.6-2.2,7c-1.5,1.5-3.5,2.2-6.1,2.2s-4.6-0.7-6.1-2.2
		c-1.5-1.5-2.2-3.8-2.2-7s0.7-5.6,2.2-7c1.5-1.5,3.5-2.2,6.1-2.2S52.7,9.3,54.2,10.8z M45.7,11.3c-0.6,1.4-0.9,3.6-0.9,6.5
		c0,2.9,0.3,5.1,0.9,6.5s1.4,2.1,2.3,2.1c1,0,1.8-0.7,2.3-2.1c0.6-1.4,0.9-3.6,0.9-6.5c0-2.9-0.3-5.1-0.9-6.5
		c-0.6-1.4-1.3-2.1-2.3-2.1C47.1,9.2,46.3,9.9,45.7,11.3z"/>
	<path class="st1" d="M67.5,9.4c0.9-0.6,2-0.8,3.2-0.8c1.2,0,2.2,0.3,3.1,1c0.9,0.6,1.6,1.6,2.2,2.9c0.5,1.3,0.8,2.8,0.8,4.6
		c0,2.2-0.3,4-1,5.5c-0.6,1.5-1.6,2.6-2.7,3.4c-1.2,0.8-2.6,1.1-4.2,1.1c-1.5,0-2.6-0.4-3.5-1.1v3.4c0,1,0.3,1.7,0.8,2.1
		c0.5,0.4,1.3,0.6,2.3,0.6v0.7c-0.3,0-1.1,0-2.3-0.1c-1.2,0-2.3-0.1-3.5-0.1c-0.9,0-1.7,0-2.6,0.1c-0.9,0-1.4,0.1-1.7,0.1V32
		c0.5,0,0.9-0.1,1.2-0.2c0.3-0.1,0.5-0.4,0.6-0.7c0.1-0.3,0.2-0.8,0.2-1.4v-17c0-1-0.2-1.8-0.5-2.3c-0.3-0.5-0.9-0.7-1.7-0.7V9
		c0.7,0.1,1.4,0.1,2.1,0.1c2,0,3.6-0.2,5-0.5v3.2C65.9,10.7,66.6,9.9,67.5,9.4z M67.6,26.1c1.5,0,2.5-0.7,3.1-2.2
		c0.6-1.4,1-3.5,1-6.3s-0.3-4.7-0.8-5.9c-0.5-1.2-1.2-1.8-2.2-1.8c-0.8,0-1.5,0.3-2.1,0.8c-0.6,0.5-1,1.2-1.2,2.2v12.3
		C66,25.8,66.7,26.1,67.6,26.1z"/>
	<path class="st1" d="M92.5,9.1c1.1,0,2,0,2.6-0.1v0.7c-0.5,0.1-0.9,0.4-1.3,0.8c-0.4,0.4-0.7,1.1-1.1,2.1l-6.1,17.1
		c-0.5,1.2-1,2-1.5,2.4c-0.7,0.6-1.7,0.8-3,0.8c-0.6,0-1.2-0.1-1.7-0.3c-0.6-0.2-1-0.5-1.4-0.9s-0.6-0.9-0.6-1.5
		c0-0.7,0.2-1.3,0.7-1.7s1.2-0.6,2-0.6c0.8,0,1.4,0.2,1.9,0.6s0.7,0.9,0.7,1.6c0,0.5-0.2,0.9-0.5,1.3c-0.3,0.4-0.7,0.7-1.3,0.9
		c0.2,0,0.4,0,0.8,0c1.4,0,2.5-0.9,3.1-2.7l0.5-1.6l-7.2-16.4c-0.4-0.8-0.7-1.3-1.1-1.5c-0.3-0.2-0.7-0.4-1.1-0.4V9
		c1.5,0.1,3,0.2,4.7,0.2c1.3,0,2.9-0.1,4.7-0.2v0.7c-0.5,0-0.9,0-1.1,0c-0.3,0-0.5,0.1-0.7,0.2c-0.2,0.1-0.3,0.3-0.3,0.6
		c0,0.3,0.1,0.6,0.2,1l4.2,10l2.3-6.5c0.4-1.1,0.5-2,0.5-2.7c0-0.9-0.2-1.5-0.7-2c-0.4-0.4-1.1-0.7-1.9-0.8V9
		C90.2,9.1,91.3,9.1,92.5,9.1z"/>
</g>
</svg>
